.
..............................Site Info...........................

 -   http://www.scenetime.com  *_*    

Scenetime .Always on time . friendly online private torrent community ..

     We care to share . Join us on  http://www.scenetime.com 

    Be the first to get new release at  http://www.scenetime.com

        Seed back for speed


...................................NFO:.................................................David.Guetta.Nothing.But.The.Beat.2011.DVDRIP.XVID.AC3-BITMAP
 
http://www.imdb.com/title/tt2044833/

Plot: A look at the life, work and influence of French DJ David Guetta.

Format                                   : AVI
Format/Info                              : Audio Video Interleave
File size                                : 727 MiB
Duration                                 : 53mn 48s
Overall bit rate                         : 1 888 Kbps


Video
ID                                       : 0
Format                                   : MPEG-4 Visual
Format profile                           : Advanced Simple@L5
Format settings, BVOP                    : 1
Format settings, QPel                    : No
Format settings, GMC                     : No warppoints
Format settings, Matrix                  : Default (H.263)
Codec ID                                 : XVID
Codec ID/Hint                            : XviD
Duration                                 : 53mn 48s
Bit rate                                 : 1 687 Kbps
Width                                    : 656 pixels
Height                                   : 272 pixels
Display aspect ratio                     : 2.40:1
Frame rate                               : 25.000 fps
Color space                              : YUV
Chroma subsampling                       : 4:2:0
Bit depth                                : 8 bits
Scan type                                : Progressive
Compression mode                         : Lossy
Bits/(Pixel*Frame)                       : 0.378
Stream size                              : 649 MiB (89%)
Writing library                          : XviD 64

Audio
ID                                       : 1
Format                                   : AC-3
Format/Info                              : Audio Coding 3
Mode extension                           : CM (complete main)
Format settings, Endianness              : Big
Codec ID                                 : 2000
Duration                                 : 53mn 48s
Bit rate mode                            : Constant
Bit rate                                 : 192 Kbps
Channel(s)                               : 2 channels
Channel positions                        : Front: L R
Sampling rate                            : 48.0 KHz
Bit depth                                : 16 bits
Compression mode                         : Lossy
Stream size                              : 73.9 MiB (10%)
Alignment                                : Split accross interleaves
Interleave, duration                     : 40 ms (1.00 video frame)
Interleave, preload duration             : 500 ms


SCREENS:

[IMG]http://i.imgur.com/uwcYJ.png[/IMG]
[IMG]http://i.imgur.com/P8Cob.png[/IMG]
[IMG]http://i.imgur.com/TwXMF.png[/IMG]